<svg width="48" height="48" viewBox="0 0 48 48" fill="none" xmlns="http://www.w3.org/2000/svg">
<g clip-path="url(#clip0)">
<path d="M11.0735 5.95884L10.5827 9.08822L7.60337 9.429L1.64453 5.78334C1.97566 4.65797 2.52897 3.63188 3.25272 2.75531C3.42522 2.54616 3.60766 2.34581 3.799 2.15447C4.79444 1.15903 6.03578 0.4095 7.42881 0L11.0735 5.95884Z" fill="#EAEAEA"/>
<path d="M10.2285 37.4264C10.2285 37.4264 20.8267 31.8381 27.3742 31.8381L29.2529 33.7169C22.7054 33.7169 12.1073 39.3051 12.1073 39.3051L10.2285 37.4264Z" fill="#FEA610"/>
<path d="M10.6297 37.8275C10.6297 37.8275 16.218 27.2293 16.218 20.6818L14.3392 18.8031C14.3392 25.3506 8.75098 35.9487 8.75098 35.9487L10.6297 37.8275Z" fill="#FEA610"/>
<path d="M12.1076 39.3051L9.19568 42.2162L8.14474 43.2681L6.04474 45.3681L4.99277 46.4201L3.83271 47.5791C3.27255 48.1403 2.36337 48.1403 1.80218 47.5791L0.476555 46.2535C-0.0846328 45.6923 -0.0846328 44.7842 0.476555 44.223L1.63662 43.0629L2.68859 42.012L4.78859 39.912L5.83952 38.86L8.75056 35.949L12.1076 39.3051Z" fill="#38ABF9"/>
<path d="M1.73857 45.4849L10.0128 37.2107L8.75088 35.9489L0.476691 44.223C-0.0840273 44.7838 -0.0840273 45.6929 0.476691 46.2535L1.73857 47.5154C1.17794 46.9546 1.17794 46.0455 1.73857 45.4849Z" fill="#2BA0E2"/>
<path d="M6.04484 45.3681L4.99287 46.42L1.63672 43.0629L2.68869 42.0118L6.04484 45.3681Z" fill="#3B4C5B"/>
<path d="M9.19577 42.2161L8.14473 43.2681L4.78857 39.912L5.83951 38.86L9.19577 42.2161Z" fill="#3B4C5B"/>
<path d="M46.5087 17.5306C46.257 17.279 45.8489 17.279 45.5973 17.5306L45.3678 17.7601C45.35 17.7364 45.331 17.7134 45.3093 17.6917L43.0879 15.4703L45.3727 13.1855L45.4512 13.264C45.577 13.3898 45.742 13.4528 45.9069 13.4528C46.0718 13.4528 46.2368 13.3898 46.3626 13.264C46.6143 13.0123 46.6143 12.6043 46.3626 12.3527L46.2841 12.2742L46.4733 12.085C46.725 11.8333 46.725 11.4253 46.4733 11.1737C46.2217 10.922 45.8136 10.922 45.562 11.1737L45.3728 11.3629L43.0873 9.07742L44.8079 7.35683C45.0597 7.10511 45.0597 6.69711 44.8079 6.44548C44.5563 6.19386 44.1482 6.19386 43.8966 6.44548L42.176 8.16608L39.8907 5.88073L41.612 4.15939C41.8637 3.90767 41.8637 3.49967 41.612 3.24804C41.3604 2.99642 40.9523 2.99642 40.7007 3.24804L38.9792 4.96939L36.6938 2.68395L36.8836 2.49411C37.1353 2.24239 37.1353 1.83439 36.8836 1.58276C36.632 1.33114 36.2239 1.33114 35.9723 1.58276L35.7824 1.77261L35.0887 1.07886C34.8371 0.82723 34.429 0.82723 34.1773 1.07886C33.9256 1.33057 33.9256 1.73857 34.1773 1.9902L34.8711 2.68395L32.5863 4.96873L30.365 2.74742C30.3433 2.72576 30.3204 2.70673 30.2967 2.68892L30.5262 2.45942C30.7779 2.2077 30.7779 1.7997 30.5262 1.54807C30.2745 1.29645 29.8664 1.29645 29.6148 1.54807L26.1933 4.96948L25.8949 4.67108C25.6433 4.41945 25.2352 4.41945 24.9836 4.67108C24.7318 4.92279 24.7318 5.33079 24.9836 5.58242L25.282 5.88083L22.9965 8.16626L22.3387 7.50842C22.087 7.2567 21.679 7.2567 21.4273 7.50842C21.1757 7.76014 21.1756 8.16814 21.4273 8.41976L22.0852 9.07761L19.7997 11.363L19.5753 11.1386C19.3237 10.887 18.9156 10.887 18.664 11.1386C18.4122 11.3903 18.4122 11.7983 18.664 12.05L18.8884 12.2744L16.5482 14.6145C16.3292 14.5501 16.0827 14.6042 15.9099 14.7769C15.7371 14.9496 15.6829 15.1962 15.7475 15.4152L15.6453 15.5174C15.3936 15.7691 15.3936 16.1771 15.6453 16.4287C15.7711 16.5545 15.9361 16.6175 16.101 16.6175C16.2659 16.6175 16.4309 16.5545 16.5567 16.4287L16.6035 16.382L18.8884 18.6666L16.603 20.9521L15.9092 20.2583C15.6576 20.0067 15.2495 20.0067 14.9979 20.2583C14.7462 20.51 14.7462 20.918 14.9979 21.1697L15.6916 21.8634L15.4433 22.1118C15.1916 22.3635 15.1916 22.7715 15.4433 23.0231C15.5691 23.1489 15.7341 23.2119 15.899 23.2119C16.0639 23.2119 16.2289 23.1489 16.3547 23.0231L16.6031 22.7748L18.8885 25.0602L17.4678 26.4809C17.2161 26.7326 17.2161 27.1406 17.4678 27.3922C17.5936 27.5181 17.7586 27.5811 17.9235 27.5811C18.0884 27.5811 18.2534 27.5181 18.3792 27.3922L19.7999 25.9716L22.0854 28.2571L20.6653 29.6771C20.4136 29.9288 20.4136 30.3368 20.6653 30.5885C20.7912 30.7143 20.9562 30.7773 21.1211 30.7773C21.286 30.7773 21.451 30.7143 21.5768 30.5885L22.9968 29.1684L25.2822 31.4539L25.0346 31.7016C24.7828 31.9533 24.7828 32.3613 25.0346 32.6129C25.1604 32.7387 25.3254 32.8017 25.4903 32.8017C25.6552 32.8017 25.8202 32.7387 25.946 32.6129L26.2903 32.2686C26.3166 32.2717 26.3429 32.274 26.3693 32.274C26.5343 32.274 26.6992 32.211 26.825 32.0852C26.971 31.9392 27.0317 31.7406 27.0083 31.5504L29.3904 29.1683L31.6752 31.4531L31.6284 31.4999C31.3767 31.7516 31.3767 32.1596 31.6284 32.4112C31.7542 32.5371 31.9192 32.6001 32.0841 32.6001C32.249 32.6001 32.414 32.5371 32.5398 32.4112L32.642 32.3091C32.7015 32.3266 32.763 32.3353 32.8245 32.3353C32.9895 32.3353 33.1544 32.2723 33.2802 32.1465C33.453 31.9737 33.5072 31.7271 33.4426 31.5082L35.7827 29.1681L36.0072 29.3926C36.133 29.5184 36.298 29.5814 36.4629 29.5814C36.6278 29.5814 36.7928 29.5184 36.9186 29.3926C37.1703 29.1409 37.1703 28.7329 36.9186 28.4812L36.6942 28.2568L38.9796 25.9714L39.6374 26.6292C39.7632 26.755 39.9282 26.818 40.0932 26.818C40.2581 26.818 40.4231 26.755 40.5489 26.6292C40.8006 26.3775 40.8006 25.9695 40.5489 25.7179L39.891 25.06L42.1765 22.7746L42.4749 23.073C42.6007 23.1988 42.7657 23.2618 42.9306 23.2618C43.0955 23.2618 43.2605 23.1988 43.3863 23.073C43.638 22.8213 43.638 22.4133 43.3863 22.1616L43.0879 21.8632L46.5094 18.4417C46.7604 18.1903 46.7604 17.7823 46.5087 17.5306ZM44.4613 12.2743L42.1765 14.5591L39.891 12.2736L42.1758 9.98886L44.4613 12.2743ZM30.3006 15.4704L32.586 13.185L34.8715 15.4704L32.586 17.7558L30.3006 15.4704ZM31.6746 18.6673L29.3892 20.9527L27.1037 18.6673L29.3892 16.3819L31.6746 18.6673ZM33.4974 12.2736L35.7828 9.9882L38.0682 12.2736L35.7828 14.5591L33.4974 12.2736ZM32.5859 11.3623L30.3005 9.07686L32.5859 6.79142L34.8714 9.07686L32.5859 11.3623ZM31.6746 12.2736L29.3892 14.5591L27.1037 12.2736L29.3892 9.9882L31.6746 12.2736ZM28.4778 15.4704L26.1924 17.7559L23.9069 15.4704L26.1924 13.185L28.4778 15.4704ZM25.2809 18.6673L22.9962 20.9521L20.7107 18.6666L22.9955 16.3819L25.2809 18.6673ZM26.1923 19.5787L28.4777 21.8642L26.1929 24.149L23.9075 21.8635L26.1923 19.5787ZM29.3892 22.7756L31.6746 25.0611L29.3898 27.3458L27.1044 25.0604L29.3892 22.7756ZM30.3005 21.8642L32.5859 19.5787L34.8714 21.8642L32.5859 24.1496L30.3005 21.8642ZM33.4975 18.6673L35.7829 16.382L38.0683 18.6674L35.7829 20.9528L33.4975 18.6673ZM36.6942 15.4704L38.9796 13.185L41.265 15.4704L38.9796 17.7559L36.6942 15.4704ZM41.2644 9.07751L38.9796 11.3623L36.6942 9.07686L38.9789 6.79208L41.2644 9.07751ZM35.7822 3.5952L38.0676 5.88064L35.7828 8.16542L33.4974 5.87998L35.7822 3.5952ZM29.3948 3.59033C29.4126 3.61404 29.4316 3.63701 29.4533 3.65867L31.6746 5.87998L29.3892 8.16542L27.1044 5.88064L29.3948 3.59033ZM26.193 6.79198L28.4778 9.07676L26.1924 11.3622L23.9076 9.07742L26.193 6.79198ZM22.9962 9.98886L25.2809 12.2736L22.9955 14.5591L20.7107 12.2743L22.9962 9.98886ZM17.5146 15.4704L19.7994 13.1856L22.0842 15.4704L19.7994 17.7552L17.5146 15.4704ZM17.5138 21.8634L19.7993 19.578L22.0847 21.8634L19.7993 24.1489L17.5138 21.8634ZM20.7107 25.0603L22.9962 22.7749L25.2816 25.0603L22.9962 27.3457L20.7107 25.0603ZM26.193 30.5426L23.9076 28.2573L26.193 25.9718L28.4785 28.2573L26.193 30.5426ZM32.5859 30.5419L30.3012 28.2571L32.5859 25.9723L34.8707 28.2571L32.5859 30.5419ZM35.7822 27.3457L33.4974 25.061L35.7828 22.7755L38.0676 25.0603L35.7822 27.3457ZM38.9789 24.149L36.6942 21.8642L38.9796 19.5787L41.2644 21.8635L38.9789 24.149ZM39.8911 18.6673L42.1766 16.3819L44.398 18.6033C44.4195 18.6249 44.4426 18.6439 44.4663 18.6618L42.176 20.9521L39.8911 18.6673Z" fill="#CCCCCC"/>
<path d="M43.9157 4.14025C37.8856 -1.88993 27.2737 -1.05509 20.2143 6.00531C13.154 13.0647 12.3192 23.6765 18.3494 29.7067C24.3796 35.7369 34.9914 34.9021 42.0517 27.8427C49.1111 20.7823 49.9459 10.1705 43.9157 4.14025ZM40.3692 26.1602C34.2478 32.2805 25.1251 33.1173 20.0319 28.0242C14.9397 22.932 15.7755 13.8083 21.8969 7.68794C28.0172 1.56653 37.1409 0.730753 42.2331 5.82297C47.3265 10.9161 46.4897 20.0387 40.3692 26.1602Z" fill="#FEA610"/>
<path d="M13.3438 10.361C13.2248 10.6535 13.0463 10.9271 12.8084 11.164C12.3295 11.6429 11.7019 11.8828 11.0733 11.8828C10.4457 11.8828 9.81806 11.6429 9.33815 11.164L7.60303 9.42889L11.0732 5.95874L12.8083 7.69386C13.5302 8.41471 13.7087 9.47258 13.3438 10.361Z" fill="#E21E43"/>
<path d="M13.3441 10.361C13.0466 10.483 12.7294 10.5445 12.4121 10.5445C11.7846 10.5445 11.1569 10.3046 10.677 9.82568L8.94189 8.09055L11.0736 5.95886L12.8087 7.69399C13.5305 8.41474 13.709 9.47261 13.3441 10.361Z" fill="#FC3552"/>
<path d="M8.94184 8.09059L7.60337 9.42906L1.64453 5.7834C1.97566 4.65803 2.52897 3.63193 3.25272 2.75537L8.94184 8.09059Z" fill="#CCCCCC"/>
</g>
<defs>
<clipPath id="clip0">
<rect width="48" height="48" fill="white"/>
</clipPath>
</defs>
</svg>
