<svg width="48" height="48" viewBox="0 0 48 48" fill="none" xmlns="http://www.w3.org/2000/svg">
<g clip-path="url(#clip0)">
<path d="M24.2065 47.3467C37.2417 47.3467 47.8088 36.9204 47.8088 24.0588C47.8088 11.1973 37.2417 0.770996 24.2065 0.770996C11.1714 0.770996 0.604248 11.1973 0.604248 24.0588C0.604248 36.9204 11.1714 47.3467 24.2065 47.3467Z" fill="#FF7043"/>
<path d="M39.2012 5.42866C39.0931 5.28127 38.9457 5.16336 38.7787 5.09458C28.3335 -3.07091 13.2505 -1.2236 5.09481 9.22154C-3.06085 19.6667 -1.22337 34.7399 9.22177 42.9054C19.6669 51.0709 34.7401 49.2236 42.9056 38.7784C50.9336 28.5003 49.2926 13.6924 39.2012 5.42866ZM44.0258 15.4808C41.5202 13.2208 38.6313 11.4128 35.4968 10.155C35.7424 8.78919 36.7054 7.65919 38.0122 7.19736C40.6456 9.44754 42.6993 12.2873 44.0258 15.4808ZM33.5119 9.45736C32.0085 8.96606 30.4756 8.59267 28.9133 8.33719C28.9231 6.50953 28.9329 4.57379 28.9329 2.51031C31.527 3.13918 33.9934 4.24953 36.1944 5.76275C34.8581 6.59797 33.8951 7.92449 33.5119 9.45736ZM26.84 2.10744C26.84 4.24953 26.84 6.24423 26.8203 8.12101C25.3759 7.98345 23.9118 7.94414 22.4575 7.99327C22.2315 6.2344 21.3767 4.6131 20.0501 3.43397C19.5883 3.05075 19.0675 2.72649 18.5074 2.49066C20.2073 2.06814 21.9466 1.85196 23.6858 1.85196C24.747 1.86179 25.7984 1.9404 26.84 2.10744ZM14.4099 3.9351H14.4296C15.9428 3.73857 17.4659 4.14144 18.6941 5.03562C19.5687 5.85119 20.1386 6.93206 20.3154 8.11119C14.5573 8.54354 9.01542 10.4498 4.21046 13.6531C6.47046 9.38858 10.0472 5.97892 14.4099 3.9351ZM2.43194 18.2812C2.48107 18.2419 2.5302 18.1928 2.5695 18.1338C4.66246 14.8322 12.0419 10.9902 20.5513 10.1845V10.2336C20.5513 14.6947 15.1076 20.9244 10.7448 25.9259C8.26864 28.461 6.12655 31.2811 4.3382 34.3272C1.6655 29.4142 0.977672 23.6757 2.43194 18.2812ZM5.83177 36.6658C5.85142 36.5872 5.87107 36.5184 5.8809 36.4398C5.8809 34.681 9.15299 30.9274 12.3268 27.3114C17.1711 21.7695 22.654 15.4808 22.654 10.2435C22.654 10.1747 22.6442 10.1255 22.6442 10.0568C24.0297 10.0076 25.425 10.0469 26.8105 10.1747C26.5648 31.4875 25.1204 35.8503 19.6571 45.3521C19.6374 45.3914 19.6276 45.4307 19.6178 45.4798C14.0464 44.4186 9.12351 41.2644 5.83177 36.6658ZM21.809 45.7746C27.4001 35.919 28.6774 30.6129 28.8936 10.4301C30.3479 10.666 31.7727 11.0099 33.168 11.4619C33.1483 11.7468 33.1287 12.022 33.1287 12.3266C33.4235 16.6599 34.5731 20.8851 36.5088 24.7664C38.7394 30.1118 40.8422 35.1723 38.5035 40.0951C34.465 43.8094 29.1786 45.8729 23.6956 45.8729C23.0667 45.8729 22.4379 45.8336 21.809 45.7746ZM41.5791 36.6462C41.9427 32.362 40.174 28.1171 38.4348 23.9705C36.6268 20.3349 35.5361 16.3848 35.2216 12.3364C35.2216 12.3069 35.2216 12.2775 35.2216 12.248C39.1324 13.9086 42.5912 16.4928 45.2934 19.7649C46.4529 25.6606 45.1067 31.7724 41.5791 36.6462Z" fill="#DB5227"/>
</g>
<defs>
<clipPath id="clip0">
<rect width="48" height="48" fill="white"/>
</clipPath>
</defs>
</svg>
