<svg width="48" height="48" viewBox="0 0 48 48" fill="none" xmlns="http://www.w3.org/2000/svg">
<path d="M27.1877 33.2807L22.8752 27.6557L25.2184 25.9694L29.4372 31.5944L27.1877 33.2807Z" fill="#FEA610"/>
<path d="M21.0938 33.8438H26.9062V36.6562H21.0938V33.8438Z" fill="#FEA610"/>
<path d="M15.1459 28.2188L12.6561 26.8125H9.84361H7.03111L4.5413 28.2188C7.49386 28.2188 5.5103 34.8462 4.33252 37.4899L6.90061 38.6352H9.84361H12.7866L15.3547 37.4899C14.1756 34.8437 12.1942 28.2188 15.1459 28.2188Z" fill="#F3F5F9"/>
<path d="M15.3547 37.4899C14.1757 34.8437 12.1943 28.2187 15.1461 28.2187L12.6562 26.8125H9.84375V38.6351H12.7867L15.3547 37.4899Z" fill="#E1E6F0"/>
<path d="M9.84375 25.4062C12.1737 25.4062 14.0625 23.5175 14.0625 21.1875C14.0625 18.8575 12.1737 16.9688 9.84375 16.9688C7.5138 16.9688 5.625 18.8575 5.625 21.1875C5.625 23.5175 7.5138 25.4062 9.84375 25.4062Z" fill="#F3F5F9"/>
<path d="M14.0625 21.1875C14.0625 18.8612 12.1701 16.9688 9.84375 16.9688V25.4062C12.1701 25.4062 14.0625 23.5138 14.0625 21.1875Z" fill="#E1E6F0"/>
<path d="M15.4688 36.6562H9.84375H4.21875C2.66541 36.6562 1.40625 37.9154 1.40625 39.4688C1.40625 41.0219 2.66541 42.2812 4.21875 42.2812L6.10238 43.6875H9.84375H13.9959L15.4688 42.2812C17.0221 42.2812 18.2812 41.0219 18.2812 39.4688C18.2812 37.9154 17.0221 36.6562 15.4688 36.6562Z" fill="#E1E6F0"/>
<path d="M18.2812 39.4688C18.2812 37.9154 17.0221 36.6562 15.4688 36.6562H9.84375V43.6875H13.9959L15.4688 42.2812C17.0221 42.2812 18.2812 41.0219 18.2812 39.4688Z" fill="#CFD7E6"/>
<path d="M16.875 42.2812H9.84375H2.8125C1.25916 42.2812 0 43.5404 0 45.0938V48H9.84375H19.6875V45.0938C19.6875 43.5404 18.4283 42.2812 16.875 42.2812Z" fill="#F3F5F9"/>
<path d="M19.6875 45.0938C19.6875 43.5404 18.4283 42.2812 16.875 42.2812H9.84375V48H19.6875V45.0938Z" fill="#E1E6F0"/>
<path d="M9.84375 25.4062H4.21875V28.2188H9.84375H15.4688V25.4062H9.84375Z" fill="#E1E6F0"/>
<path d="M9.84375 25.4062H15.4688V28.2188H9.84375V25.4062Z" fill="#CFD7E6"/>
<path d="M39.5625 2.8125V0H38.1562H36.75V2.8125H33.9375V5.625H36.75V9.84375H38.1562H39.5625V5.625H42.375V2.8125H39.5625Z" fill="#353D4D"/>
<path d="M39.5625 5.625H42.375V2.8125H39.5625V0H38.1562V9.84375H39.5625V5.625Z" fill="#1E2533"/>
<path d="M43.284 14.4515C44.0448 12.397 46.1501 8.4375 46.1501 8.4375H38.1561H30.1594C30.1594 8.4375 32.2633 12.3875 33.0269 14.4487C33.4788 15.6707 32.426 16.9688 31.1249 16.9688L34.5886 17.8125H38.1561H41.8161L45.1874 16.9688C43.8889 16.9688 42.8337 15.6707 43.284 14.4515Z" fill="#515866"/>
<path d="M45.1875 16.9688C43.8891 16.9688 42.8338 15.6707 43.2841 14.4515C44.045 12.397 46.1502 8.4375 46.1502 8.4375H38.1562V17.8125H41.8163L45.1875 16.9688Z" fill="#353D4D"/>
<path d="M42.6772 22.4866C42.4949 21.1592 43.443 19.7812 45.1876 19.7812L41.4276 18.9375H38.1563H33.5232L31.125 19.7812C32.5691 19.7812 33.8314 21.0532 33.6354 22.4866C33.0064 27.0893 31.3992 32.3075 29.5513 36.6562L32.857 38.0625H38.1563H43.204L46.7599 36.6562C44.9045 32.2902 43.3037 27.0719 42.6772 22.4866Z" fill="#515866"/>
<path d="M46.7599 36.6562C44.9044 32.2902 43.3037 27.0719 42.6771 22.4866C42.4948 21.1592 43.4429 19.7812 45.1875 19.7812L41.4276 18.9375H38.1562V38.0625H43.2039L46.7599 36.6562Z" fill="#353D4D"/>
<path d="M38.1563 36.6562H29.5513L33.6768 43.6875H38.1563H42.6659L46.7599 36.6562H38.1563Z" fill="#353D4D"/>
<path d="M46.7599 36.6562H38.1562V43.6875H42.6658L46.7599 36.6562Z" fill="#1E2533"/>
<path d="M45.1875 42.2812H38.1562H31.125C29.5717 42.2812 28.3125 43.5404 28.3125 45.0938V48H38.1562H48V45.0938C48 43.5404 46.7408 42.2812 45.1875 42.2812Z" fill="#515866"/>
<path d="M48 45.0938C48 43.5404 46.7408 42.2812 45.1875 42.2812H38.1562V48H48V45.0938Z" fill="#353D4D"/>
<path d="M38.1562 16.9688H31.125V19.7812H38.1562H45.1875V16.9688H38.1562Z" fill="#353D4D"/>
<path d="M38.1562 16.9688H45.1875V19.7812H38.1562V16.9688Z" fill="#1E2533"/>
</svg>
