<svg width="16" height="10" viewBox="0 0 16 10" fill="none" xmlns="http://www.w3.org/2000/svg">
<path d="M8 4C8.41146 4 8.79948 4.07812 9.16406 4.23438C9.52865 4.39062 9.84635 4.60417 10.1172 4.875C10.388 5.14583 10.6042 5.46615 10.7656 5.83594C10.9271 6.20573 11.0052 6.59375 11 7C11 7.41667 10.9219 7.80469 10.7656 8.16406C10.6094 8.52344 10.3958 8.84115 10.125 9.11719C9.85417 9.39323 9.53385 9.60938 9.16406 9.76562C8.79427 9.92188 8.40625 10 8 10C7.58333 10 7.19531 9.92188 6.83594 9.76562C6.47656 9.60938 6.15885 9.39583 5.88281 9.125C5.60677 8.85417 5.39062 8.53646 5.23438 8.17188C5.07812 7.80729 5 7.41667 5 7C5 6.58854 5.07812 6.20052 5.23438 5.83594C5.39062 5.47135 5.60417 5.15365 5.875 4.88281C6.14583 4.61198 6.46354 4.39583 6.82812 4.23438C7.19271 4.07292 7.58333 3.99479 8 4ZM8 9C8.27604 9 8.53385 8.94792 8.77344 8.84375C9.01302 8.73958 9.22656 8.59635 9.41406 8.41406C9.60156 8.23177 9.74479 8.02083 9.84375 7.78125C9.94271 7.54167 9.99479 7.28125 10 7C10 6.72396 9.94792 6.46615 9.84375 6.22656C9.73958 5.98698 9.59635 5.77344 9.41406 5.58594C9.23177 5.39844 9.02083 5.25521 8.78125 5.15625C8.54167 5.05729 8.28125 5.00521 8 5C7.72396 5 7.46615 5.05208 7.22656 5.15625C6.98698 5.26042 6.77344 5.40365 6.58594 5.58594C6.39844 5.76823 6.25521 5.97917 6.15625 6.21875C6.05729 6.45833 6.00521 6.71875 6 7C6 7.27604 6.05208 7.53385 6.15625 7.77344C6.26042 8.01302 6.40365 8.22656 6.58594 8.41406C6.76823 8.60156 6.97917 8.74479 7.21875 8.84375C7.45833 8.94271 7.71875 8.99479 8 9ZM8 0C8.74479 0 9.48438 0.0911458 10.2188 0.273438C10.9531 0.455729 11.6458 0.729167 12.2969 1.09375C12.9479 1.45833 13.5365 1.90104 14.0625 2.42188C14.5885 2.94271 15.0208 3.55208 15.3594 4.25C15.5677 4.68229 15.7266 5.1276 15.8359 5.58594C15.9453 6.04427 16 6.51562 16 7H15C15 6.38542 14.9062 5.8099 14.7188 5.27344C14.5312 4.73698 14.2734 4.2474 13.9453 3.80469C13.6172 3.36198 13.2266 2.96615 12.7734 2.61719C12.3203 2.26823 11.8385 1.97396 11.3281 1.73438C10.8177 1.49479 10.2734 1.3125 9.69531 1.1875C9.11719 1.0625 8.55208 1 8 1C7.4375 1 6.8724 1.0625 6.30469 1.1875C5.73698 1.3125 5.19531 1.49479 4.67969 1.73438C4.16406 1.97396 3.67969 2.26823 3.22656 2.61719C2.77344 2.96615 2.38542 3.36198 2.0625 3.80469C1.73958 4.2474 1.47917 4.73698 1.28125 5.27344C1.08333 5.8099 0.989583 6.38542 1 7H0C0 6.52083 0.0546875 6.05208 0.164062 5.59375C0.273438 5.13542 0.432292 4.6875 0.640625 4.25C0.973958 3.5625 1.40365 2.95573 1.92969 2.42969C2.45573 1.90365 3.04688 1.45833 3.70312 1.09375C4.35938 0.729167 5.05208 0.458333 5.78125 0.28125C6.51042 0.104167 7.25 0.0104167 8 0Z" fill="#A0A0A0"/>
</svg>
