<svg width="120" height="120" viewBox="0 0 120 120" fill="none" xmlns="http://www.w3.org/2000/svg">
<g clip-path="url(#clip0)">
<path d="M60.0014 83.4264L82.2799 67.2393L102.566 73.9539L107.831 96.2347C106.184 98.3997 104.383 100.47 102.427 102.427C95.8766 108.976 88.0777 113.821 79.5685 116.748L60 104.693L60.0014 83.4264Z" fill="#F6F9F9"/>
<path d="M59.9998 83.4264L37.7197 67.2391L46.2301 41.0477H73.7693L82.2797 67.2391L59.9998 83.4264Z" fill="#135772"/>
<path d="M37.7193 67.239L59.9992 83.4262V104.692L40.4722 116.761C31.947 113.837 24.1333 108.987 17.5728 102.426C15.6318 100.485 13.8443 98.4323 12.2078 96.2863L17.4508 73.7965L37.7193 67.239Z" fill="#F6F9F9"/>
<path d="M79.5688 116.747C73.3555 118.884 66.7642 120 60.0003 120C53.2517 120 46.6745 118.889 40.4734 116.762L60.0003 104.693L79.5688 116.747Z" fill="#135772"/>
<path d="M46.2294 41.0477L37.7192 67.239L17.4505 73.7967L0.0153809 58.6493C0.279763 46.6034 4.07518 35.1478 10.9106 25.4733L33.8424 23.7561L46.2294 41.0477Z" fill="#ECECEF"/>
<path d="M73.7691 41.0477H46.23L33.843 23.7561L42.57 2.55819C48.1489 0.873141 54.0071 0 59.9997 0C65.9995 0 71.8647 0.875017 77.45 2.56406L86.3323 23.8439L73.7691 41.0477Z" fill="#F6F9F9"/>
<path d="M102.566 73.9539L82.2797 67.2393L73.7695 41.0479L86.3325 23.8443L109.154 25.5662C115.971 35.2543 119.745 46.7207 119.985 58.7734L102.566 73.9539Z" fill="#ECECEF"/>
<path d="M12.2085 96.2866C4.29016 85.9022 0 73.2818 0 60.0001C0 59.549 0.00656849 59.0988 0.0164212 58.6493L17.4515 73.7967L12.2085 96.2866Z" fill="#135772"/>
<path d="M10.9124 25.4733C12.8843 22.6824 15.1084 20.0393 17.5742 17.5735C24.6694 10.4784 33.2288 5.37959 42.5708 2.55795L33.8439 23.7559L10.9124 25.4733Z" fill="#135772"/>
<path d="M109.154 25.566L86.3332 23.8441L77.4509 2.56406C86.785 5.38687 95.3369 10.4835 102.427 17.5735C104.92 20.0667 107.166 22.7408 109.154 25.566Z" fill="#135772"/>
<path d="M119.986 58.7732C119.995 59.1816 120.001 59.5903 120.001 60.0001C120.001 73.2595 115.725 85.8602 107.833 96.2345L102.568 73.9537L119.986 58.7732Z" fill="#135772"/>
<path d="M60.0014 83.4264L82.2799 67.2393L102.566 73.9539L107.831 96.2347C106.184 98.3997 104.383 100.47 102.427 102.427C95.8766 108.976 88.0777 113.821 79.5685 116.748L60 104.693L60.0014 83.4264Z" fill="#ECECEF"/>
<path d="M102.566 73.9539L82.2797 67.2393L73.7695 41.0479L86.3325 23.8443L109.154 25.5662C115.971 35.2543 119.745 46.7207 119.985 58.7734L102.566 73.9539Z" fill="#DDDDDF"/>
<path d="M109.154 25.566L86.3332 23.8441L77.4509 2.56406C86.785 5.38687 95.3369 10.4835 102.427 17.5735C104.92 20.0667 107.166 22.7408 109.154 25.566Z" fill="#093F61"/>
<path d="M119.986 58.7732C119.995 59.1816 120.001 59.5903 120.001 60.0001C120.001 73.2595 115.725 85.8603 107.833 96.2345L102.568 73.9537L119.986 58.7732Z" fill="#093F61"/>
<path d="M60 120C66.7637 120 73.3549 118.884 79.5685 116.747L60 104.693V120Z" fill="#093F61"/>
<path d="M86.3326 23.8441L77.4504 2.56406C71.865 0.875017 65.9998 0 60 0V41.0477H73.7697L86.3326 23.8441Z" fill="#ECECEF"/>
<path d="M73.7694 41.0477H60V83.4264L82.2799 67.2391L73.7694 41.0477Z" fill="#093F61"/>
</g>
<defs>
<clipPath id="clip0">
<rect width="120" height="120" fill="white"/>
</clipPath>
</defs>
</svg>
