<svg width="48" height="48" viewBox="0 0 48 48" fill="none" xmlns="http://www.w3.org/2000/svg">
<g clip-path="url(#clip0)">
<path d="M24.0006 33.3706L32.9119 26.8958L41.0266 29.5816L43.1325 38.4939C42.4737 39.3599 41.7532 40.188 40.9706 40.9707C38.3507 43.5906 35.2311 45.5286 31.8274 46.6991L24 41.8772L24.0006 33.3706Z" fill="#F6F9F9"/>
<path d="M23.9999 33.3707L15.0879 26.8958L18.4921 16.4192H29.5077L32.9119 26.8958L23.9999 33.3707Z" fill="#135772"/>
<path d="M15.0879 26.8955L23.9999 33.3704V41.8768L16.1891 46.7045C12.779 45.5345 9.65353 43.5946 7.02932 40.9704C6.25293 40.194 5.5379 39.3728 4.8833 38.5144L6.98053 29.5185L15.0879 26.8955Z" fill="#F6F9F9"/>
<path d="M31.8271 46.6989C29.3418 47.5536 26.7053 47.9999 23.9997 47.9999C21.3003 47.9999 18.6694 47.5556 16.189 46.7046L23.9997 41.877L31.8271 46.6989Z" fill="#135772"/>
<path d="M18.492 16.4191L15.0879 26.8956L6.9804 29.5187L0.00634766 23.4597C0.1121 18.6414 1.63027 14.0591 4.36445 10.1893L13.5372 9.50244L18.492 16.4191Z" fill="#ECECEF"/>
<path d="M29.508 16.4191H18.4924L13.5376 9.50245L17.0284 1.02328C19.26 0.349256 21.6032 0 24.0003 0C26.4002 0 28.7463 0.350007 30.9804 1.02562L34.5333 9.53755L29.508 16.4191Z" fill="#F6F9F9"/>
<path d="M41.0265 29.5817L32.9119 26.8958L29.5078 16.4193L34.533 9.53784L43.6614 10.2266C46.3885 14.1018 47.8979 18.6884 47.994 23.5095L41.0265 29.5817Z" fill="#ECECEF"/>
<path d="M4.88339 38.5146C1.71607 34.3609 0 29.3127 0 24C0 23.8196 0.0026274 23.6395 0.00656849 23.4597L6.98062 29.5187L4.88339 38.5146Z" fill="#135772"/>
<path d="M4.36475 10.1893C5.15353 9.07297 6.04318 8.01573 7.02949 7.02942C9.86755 4.19136 13.2913 2.15185 17.0281 1.02319L13.5374 9.50236L4.36475 10.1893Z" fill="#135772"/>
<path d="M43.6613 10.2264L34.5329 9.53765L30.98 1.02563C34.7136 2.15476 38.1344 4.19343 40.9704 7.02942C41.9676 8.02671 42.866 9.09634 43.6613 10.2264Z" fill="#135772"/>
<path d="M47.9939 23.5093C47.9971 23.6726 47.9999 23.8361 47.9999 24C47.9999 29.3038 46.2895 34.3441 43.1323 38.4938L41.0264 29.5815L47.9939 23.5093Z" fill="#135772"/>
<path d="M24.0006 33.3706L32.9119 26.8958L41.0266 29.5816L43.1325 38.4939C42.4737 39.3599 41.7532 40.188 40.9706 40.9707C38.3507 43.5906 35.2311 45.5286 31.8274 46.6991L24 41.8772L24.0006 33.3706Z" fill="#ECECEF"/>
<path d="M41.0265 29.5817L32.9119 26.8958L29.5078 16.4193L34.533 9.53784L43.6614 10.2266C46.3885 14.1018 47.8979 18.6884 47.994 23.5095L41.0265 29.5817Z" fill="#DDDDDF"/>
<path d="M43.6613 10.2264L34.5329 9.53765L30.98 1.02563C34.7136 2.15476 38.1344 4.19343 40.9704 7.02942C41.9676 8.02671 42.866 9.09634 43.6613 10.2264Z" fill="#093F61"/>
<path d="M47.9939 23.5093C47.9971 23.6726 47.9999 23.8361 47.9999 24C47.9999 29.3038 46.2895 34.3441 43.1323 38.4938L41.0264 29.5815L47.9939 23.5093Z" fill="#093F61"/>
<path d="M24 47.9999C26.7055 47.9999 29.342 47.5536 31.8274 46.6989L24 41.877V47.9999Z" fill="#093F61"/>
<path d="M34.533 9.53764L30.9801 1.02562C28.746 0.350007 26.3999 0 24 0V16.4191H29.5079L34.533 9.53764Z" fill="#ECECEF"/>
<path d="M29.5078 16.4192H24V33.3707L32.9119 26.8958L29.5078 16.4192Z" fill="#093F61"/>
</g>
<defs>
<clipPath id="clip0">
<rect width="48" height="48" fill="white"/>
</clipPath>
</defs>
</svg>
