<svg width="48" height="48" viewBox="0 0 48 48" fill="none" xmlns="http://www.w3.org/2000/svg">
<g clip-path="url(#clip0)">
<path fill-rule="evenodd" clip-rule="evenodd" d="M8.52896 33.7565L16.1044 30.2267L17.4548 25.7912L14.7787 19.009L8.08702 16.4235C8.04034 16.7858 8.02665 17.1453 8.0184 17.6092C7.91687 23.4226 9.68452 26.9194 8.52896 33.7565Z" fill="#FE8607"/>
<path fill-rule="evenodd" clip-rule="evenodd" d="M14.2432 39.4713C21.0804 38.3157 24.5771 40.0834 30.3905 39.9818C30.8544 39.9736 31.2112 39.9599 31.5734 39.9132L28.4554 32.4942L22.2084 30.5454L17.4929 32.8702L14.2432 39.4713Z" fill="#FE8607"/>
<path fill-rule="evenodd" clip-rule="evenodd" d="M26.633 36.2241C23.2899 36.2818 20.7126 35.7218 17.8251 35.4556L14.2432 39.4712C21.0804 38.3156 24.5771 40.0833 30.3905 39.9817C30.8544 39.9735 31.2112 39.9598 31.5734 39.9131L27.8159 36.1555C27.4537 36.2021 27.0969 36.2159 26.633 36.2241Z" fill="#F46700"/>
<path fill-rule="evenodd" clip-rule="evenodd" d="M1.3734 46.6267C3.15747 48.408 6.1794 48.5068 7.85922 46.6267L9.86012 44.3842L7.62869 40.4949L3.6159 38.1399L1.3734 40.1409C0.728404 40.72 0.313936 41.4556 0.124561 42.2433C-0.0428768 42.935 -0.0401581 43.6651 0.124561 44.3678C0.319373 45.1994 0.739373 45.9899 1.3734 46.6267Z" fill="#FEC165"/>
<path fill-rule="evenodd" clip-rule="evenodd" d="M7.80172 42.3257L5.80081 44.5682C4.45587 46.075 2.25191 46.3111 0.511719 45.4327C0.731281 45.8664 1.01947 46.2699 1.37356 46.6267C3.15762 48.4081 6.17956 48.5069 7.85937 46.6267L9.86028 44.3842L7.80172 42.3257Z" fill="#FEA610"/>
<path fill-rule="evenodd" clip-rule="evenodd" d="M14.2432 39.4712L22.2085 30.5453L21.5635 26.4885L17.4546 25.7914L8.52868 33.7566L7.28809 34.8627L8.62206 39.3009L13.1371 40.7118L14.2432 39.4712Z" fill="#FEC165"/>
<path fill-rule="evenodd" clip-rule="evenodd" d="M20.15 28.4894L12.1848 37.4126L11.0786 38.6532L13.1372 40.7118L14.2432 39.4712L22.2085 30.5452L20.15 28.4894Z" fill="#FEA610"/>
<path fill-rule="evenodd" clip-rule="evenodd" d="M3.61572 38.14L9.86004 44.3843L13.1373 40.7119L7.28819 34.8628L3.61572 38.14Z" fill="#FB2A39"/>
<path fill-rule="evenodd" clip-rule="evenodd" d="M11.079 38.6532L10.0908 39.7594L8.33698 41.7273L7.80176 42.3257L9.86032 44.3842L13.1375 40.7118L11.079 38.6532Z" fill="#DD003A"/>
<path fill-rule="evenodd" clip-rule="evenodd" d="M8.08691 16.4235L17.4547 25.7913L22.2086 30.5452L31.5736 39.9129C32.0814 39.8443 32.5974 39.7071 33.429 39.4079C34.494 39.0264 35.5178 38.5488 36.4949 37.9834C36.9039 38.3183 43.3513 33.1142 44.7484 29.4994C45.6487 27.9266 46.3925 26.2441 46.9579 24.4847C49.3321 17.1013 47.5179 9.83053 42.849 5.15072C38.1692 0.482064 30.8984 -1.33219 23.5151 1.04194C16.6505 3.24872 10.8838 8.17275 8.59194 14.5708C8.29551 15.4025 8.15554 15.9158 8.08691 16.4235Z" fill="#FB2A39"/>
<path fill-rule="evenodd" clip-rule="evenodd" d="M32.7404 34.2287C31.7908 34.7749 30.7972 35.2415 29.7679 35.6175C29.735 35.6285 29.7048 35.6395 29.6746 35.6504C28.8403 35.9496 28.3243 36.0868 27.8164 36.1555L31.5739 39.9131C32.0817 39.8444 32.5977 39.7072 33.4293 39.408C34.4943 39.0265 35.5181 38.5489 36.4952 37.9835C36.9042 38.3184 43.3516 33.1143 44.7487 29.4995C45.649 27.9267 46.3928 26.2442 46.9582 24.4848C49.3324 17.1014 47.5182 9.83066 42.8493 5.15084C42.218 4.52234 41.5401 3.94588 40.821 3.42444C44.1722 8.03562 45.2537 14.3403 43.2006 20.73C42.6352 22.4866 41.8914 24.1691 40.9938 25.7447C39.594 29.3568 33.1467 34.5608 32.7404 34.2287Z" fill="#DD003A"/>
<path fill-rule="evenodd" clip-rule="evenodd" d="M41.842 41.085C45.2345 41.085 47.9985 38.3211 47.9985 34.9286C47.9985 31.5388 45.2345 28.7721 41.842 28.7721C38.4523 28.7721 35.6855 31.5387 35.6855 34.9286C35.6855 38.321 38.4522 41.085 41.842 41.085Z" fill="#F8F2F0"/>
<path fill-rule="evenodd" clip-rule="evenodd" d="M41.842 28.7721C41.5346 28.7721 41.2299 28.794 40.9335 28.838C42.1219 29.3156 43.1266 30.1527 43.8127 31.2149C44.4358 32.1783 44.7953 33.3229 44.7953 34.5552C44.7953 37.6458 42.5172 40.204 39.5474 40.6431C40.2583 40.9286 41.0323 41.085 41.842 41.085C45.2427 41.085 47.9985 38.3293 47.9985 34.9286C47.9985 32.5791 46.6837 30.5397 44.7487 29.4995C43.884 29.0355 42.8932 28.7721 41.842 28.7721Z" fill="#EEE1DC"/>
</g>
<defs>
<clipPath id="clip0">
<rect width="48" height="48" fill="white"/>
</clipPath>
</defs>
</svg>
