<svg width="48" height="48" viewBox="0 0 48 48" fill="none" xmlns="http://www.w3.org/2000/svg">
<g clip-path="url(#clip0)">
<path d="M24.0015 47.9974C37.2555 47.9974 48.0001 37.2529 48.0001 23.9988C48.0001 10.7448 37.2555 0.000244141 24.0015 0.000244141C10.7475 0.000244141 0.00292969 10.7448 0.00292969 23.9988C0.00292969 37.2529 10.7475 47.9974 24.0015 47.9974Z" fill="#0071CE"/>
<path d="M24.0015 47.9974C37.2555 47.9974 48.0001 37.2529 48.0001 23.9988C48.0001 10.7448 37.2555 0.000244141 24.0015 0.000244141C10.7475 0.000244141 0.00292969 10.7448 0.00292969 23.9988C0.00292969 37.2529 10.7475 47.9974 24.0015 47.9974Z" fill="#E8E8E8"/>
<path d="M24.0015 0.000244141C20.3441 0.000244141 16.8788 0.819797 13.7766 2.28307C24.5928 1.49589 33.882 5.82314 38.7253 12.3857L38.7255 12.3864C39.5056 10.6168 40.1031 8.66423 40.4706 6.54488C36.1728 2.48796 30.3779 0.000244141 24.0015 0.000244141Z" fill="#00B3E3"/>
<path d="M33.6817 19.5345C28.2239 12.1305 17.1086 7.56816 4.52395 9.97831C2.71474 12.4873 1.37845 15.3594 0.645264 18.465C10.6989 14.7713 20.0172 18.1267 24.0014 23.9988C27.3369 23.7564 30.7811 22.2087 33.6819 19.535L33.6817 19.5345Z" fill="#00B3E3"/>
<path d="M44.7848 35.998C46.6134 32.8305 47.6364 29.4196 47.9202 26.0015C43.1938 35.7622 34.8019 41.6431 26.6968 42.5564L26.696 42.5562C27.8385 44.1165 29.2309 45.6103 30.8826 46.9883C36.5446 45.2947 41.5966 41.52 44.7848 35.998Z" fill="#0071CE"/>
<path d="M23.0275 34.6142C32.1684 33.5895 41.6771 26.2446 45.8823 14.1409C44.614 11.3196 42.7949 8.72622 40.4719 6.53857C38.6439 17.0922 31.079 23.4845 24.0013 23.9987C22.5436 27.0086 22.1618 30.7652 23.0269 34.6142H23.0275Z" fill="#0071CE"/>
<path d="M3.21825 35.998C5.0468 39.1654 7.48944 41.7567 10.3078 43.7116C4.21787 34.738 3.32075 24.5298 6.58249 17.0541L6.58295 17.0534C4.66048 17.2628 2.67063 17.7217 0.651374 18.463C-0.712832 24.2134 0.0300741 30.4758 3.21825 35.998Z" fill="#0071CE"/>
<path d="M6.58232 17.0544C3.32058 24.5301 4.21781 34.7381 10.3075 43.7116C13.669 46.0433 17.5656 47.4676 21.5979 47.8768C13.2182 38.1833 11.612 26.2761 15.2948 17.8475L15.295 17.8471C12.677 17.03 9.71879 16.7123 6.58266 17.0534L6.58232 17.0544Z" fill="#FFC843"/>
<path d="M15.2952 17.8475C11.6124 26.2761 13.2189 38.1833 21.5984 47.877C24.6757 48.1891 27.8313 47.9105 30.8873 46.9927C22.6617 40.1328 20.9081 30.3852 24.0015 23.9988C22.1239 21.2314 19.0613 19.0224 15.2953 17.8472L15.2952 17.8475Z" fill="#0071CE"/>
</g>
<defs>
<clipPath id="clip0">
<rect width="48" height="48" fill="white"/>
</clipPath>
</defs>
</svg>
