<svg width="166" height="29" viewBox="0 0 166 29" fill="none" xmlns="http://www.w3.org/2000/svg">
<path d="M14.6875 3.4375H4.20312V8.95312H8.85938C10.526 8.95312 11.9792 9.23958 13.2188 9.8125C14.4583 10.3854 15.401 11.1979 16.0469 12.25C16.6927 13.3021 17.0156 14.5208 17.0156 15.9062C17.0156 18.0312 16.2917 19.7396 14.8438 21.0312C13.4062 22.3229 11.4427 22.9792 8.95312 23H0.25V0.25H14.6875V3.4375ZM4.20312 12.125V19.8438H8.84375C10.1771 19.8438 11.2135 19.4844 11.9531 18.7656C12.7031 18.0365 13.0781 17.0729 13.0781 15.875C13.0781 14.7292 12.7135 13.8229 11.9844 13.1562C11.2552 12.4896 10.2448 12.1458 8.95312 12.125H4.20312ZM30.1719 23C30.0052 22.6771 29.8594 22.151 29.7344 21.4219C28.526 22.6823 27.0469 23.3125 25.2969 23.3125C23.599 23.3125 22.2135 22.8281 21.1406 21.8594C20.0677 20.8906 19.5312 19.6927 19.5312 18.2656C19.5312 16.4635 20.1979 15.0833 21.5312 14.125C22.875 13.1562 24.7917 12.6719 27.2812 12.6719H29.6094V11.5625C29.6094 10.6875 29.3646 9.98958 28.875 9.46875C28.3854 8.9375 27.6406 8.67188 26.6406 8.67188C25.776 8.67188 25.0677 8.89062 24.5156 9.32812C23.9635 9.75521 23.6875 10.3021 23.6875 10.9688H19.8906C19.8906 10.0417 20.1979 9.17708 20.8125 8.375C21.4271 7.5625 22.2604 6.92708 23.3125 6.46875C24.375 6.01042 25.5573 5.78125 26.8594 5.78125C28.8385 5.78125 30.4167 6.28125 31.5938 7.28125C32.7708 8.27083 33.375 9.66667 33.4062 11.4688V19.0938C33.4062 20.6146 33.6198 21.8281 34.0469 22.7344V23H30.1719ZM26 20.2656C26.75 20.2656 27.4531 20.0833 28.1094 19.7188C28.776 19.3542 29.276 18.8646 29.6094 18.25V15.0625H27.5625C26.1562 15.0625 25.099 15.3073 24.3906 15.7969C23.6823 16.2865 23.3281 16.9792 23.3281 17.875C23.3281 18.6042 23.5677 19.1875 24.0469 19.625C24.5365 20.0521 25.1875 20.2656 26 20.2656ZM37.4531 19.9688C38.5052 18.7917 39.2083 17.6771 39.5625 16.625C39.9271 15.5625 40.1458 14.2083 40.2188 12.5625L40.4375 6.09375H52.1719V19.9688H54.5156V28.0312H50.7344V23H39.8906V28.0312H36.0469L36.0625 19.9688H37.4531ZM41.9062 19.9688H48.3906V9.35938H44.125L44.0156 12.5938C43.8698 15.6979 43.1667 18.1562 41.9062 19.9688ZM66.9844 18.3281L71.9844 6.09375H76.7344V23H72.9375V11.8125L68.2812 23H65.7031L61.0312 11.75V23H57.2344V6.09375H62.0156L66.9844 18.3281ZM91.5625 6.09375H95.3438V23H91.5625V11.7188L84.9375 23H81.1562V6.09375H84.9375V17.375L91.5625 6.09375ZM113.703 23H109.906V16.1719H103.328V23H99.5312V6.09375H103.328V13.1406H109.906V6.09375H113.703V23ZM131.062 9.10938H125.578V23H121.781V9.10938H116.359V6.09375H131.062V9.10938ZM132.422 14.3906C132.422 12.7344 132.75 11.2448 133.406 9.92188C134.062 8.58854 134.984 7.56771 136.172 6.85938C137.359 6.14062 138.724 5.78125 140.266 5.78125C142.547 5.78125 144.396 6.51562 145.812 7.98438C147.24 9.45312 148.01 11.401 148.125 13.8281L148.141 14.7188C148.141 16.3854 147.818 17.875 147.172 19.1875C146.536 20.5 145.62 21.5156 144.422 22.2344C143.234 22.9531 141.859 23.3125 140.297 23.3125C137.911 23.3125 136 22.5208 134.562 20.9375C133.135 19.3438 132.422 17.224 132.422 14.5781V14.3906ZM136.219 14.7188C136.219 16.4583 136.578 17.8229 137.297 18.8125C138.016 19.7917 139.016 20.2812 140.297 20.2812C141.578 20.2812 142.573 19.7812 143.281 18.7812C144 17.7812 144.359 16.3177 144.359 14.3906C144.359 12.6823 143.99 11.3281 143.25 10.3281C142.521 9.32812 141.526 8.82812 140.266 8.82812C139.026 8.82812 138.042 9.32292 137.312 10.3125C136.583 11.2917 136.219 12.7604 136.219 14.7188ZM165.672 23H161.875V16.1719H155.297V23H151.5V6.09375H155.297V13.1406H161.875V6.09375H165.672V23Z" fill="white"/>
</svg>
