<svg width="155" height="26" viewBox="0 0 155 26" fill="none" xmlns="http://www.w3.org/2000/svg">
<path d="M14.6875 5.4375H4.20312V10.9531H8.85938C10.526 10.9531 11.9792 11.2396 13.2188 11.8125C14.4583 12.3854 15.401 13.1979 16.0469 14.25C16.6927 15.3021 17.0156 16.5208 17.0156 17.9062C17.0156 20.0312 16.2917 21.7396 14.8438 23.0312C13.4062 24.3229 11.4427 24.9792 8.95312 25H0.25V2.25H14.6875V5.4375ZM4.20312 14.125V21.8438H8.84375C10.1771 21.8438 11.2135 21.4844 11.9531 20.7656C12.7031 20.0365 13.0781 19.0729 13.0781 17.875C13.0781 16.7292 12.7135 15.8229 11.9844 15.1562C11.2552 14.4896 10.2448 14.1458 8.95312 14.125H4.20312ZM30.1719 25C30.0052 24.6771 29.8594 24.151 29.7344 23.4219C28.526 24.6823 27.0469 25.3125 25.2969 25.3125C23.599 25.3125 22.2135 24.8281 21.1406 23.8594C20.0677 22.8906 19.5312 21.6927 19.5312 20.2656C19.5312 18.4635 20.1979 17.0833 21.5312 16.125C22.875 15.1562 24.7917 14.6719 27.2812 14.6719H29.6094V13.5625C29.6094 12.6875 29.3646 11.9896 28.875 11.4688C28.3854 10.9375 27.6406 10.6719 26.6406 10.6719C25.776 10.6719 25.0677 10.8906 24.5156 11.3281C23.9635 11.7552 23.6875 12.3021 23.6875 12.9688H19.8906C19.8906 12.0417 20.1979 11.1771 20.8125 10.375C21.4271 9.5625 22.2604 8.92708 23.3125 8.46875C24.375 8.01042 25.5573 7.78125 26.8594 7.78125C28.8385 7.78125 30.4167 8.28125 31.5938 9.28125C32.7708 10.2708 33.375 11.6667 33.4062 13.4688V21.0938C33.4062 22.6146 33.6198 23.8281 34.0469 24.7344V25H30.1719ZM26 22.2656C26.75 22.2656 27.4531 22.0833 28.1094 21.7188C28.776 21.3542 29.276 20.8646 29.6094 20.25V17.0625H27.5625C26.1562 17.0625 25.099 17.3073 24.3906 17.7969C23.6823 18.2865 23.3281 18.9792 23.3281 19.875C23.3281 20.6042 23.5677 21.1875 24.0469 21.625C24.5365 22.0521 25.1875 22.2656 26 22.2656ZM44.3281 22.2812C45.276 22.2812 46.0625 22.0052 46.6875 21.4531C47.3125 20.901 47.6458 20.2188 47.6875 19.4062H51.2656C51.224 20.4583 50.8958 21.4427 50.2812 22.3594C49.6667 23.2656 48.8333 23.9844 47.7812 24.5156C46.7292 25.0469 45.5938 25.3125 44.375 25.3125C42.0104 25.3125 40.1354 24.5469 38.75 23.0156C37.3646 21.4844 36.6719 19.3698 36.6719 16.6719V16.2812C36.6719 13.7083 37.3594 11.651 38.7344 10.1094C40.1094 8.55729 41.9844 7.78125 44.3594 7.78125C46.3698 7.78125 48.0052 8.36979 49.2656 9.54688C50.5365 10.7135 51.2031 12.25 51.2656 14.1562H47.6875C47.6458 13.1875 47.3125 12.3906 46.6875 11.7656C46.0729 11.1406 45.2865 10.8281 44.3281 10.8281C43.099 10.8281 42.151 11.276 41.4844 12.1719C40.8177 13.0573 40.4792 14.4062 40.4688 16.2188V16.8281C40.4688 18.6615 40.7969 20.0312 41.4531 20.9375C42.1198 21.8333 43.0781 22.2812 44.3281 22.2812ZM60.1406 18.3125H58.2188V25H54.4219V8.09375H58.2188V14.8438H59.8906L64.5625 8.09375H69.25L63.1406 16.1875L69.7656 25H64.8281L60.1406 18.3125ZM79.0469 25.3125C76.6406 25.3125 74.6875 24.5573 73.1875 23.0469C71.6979 21.526 70.9531 19.5052 70.9531 16.9844V16.5156C70.9531 14.8281 71.276 13.3229 71.9219 12C72.5781 10.6667 73.4948 9.63021 74.6719 8.89062C75.849 8.15104 77.1615 7.78125 78.6094 7.78125C80.9115 7.78125 82.6875 8.51562 83.9375 9.98438C85.1979 11.4531 85.8281 13.5312 85.8281 16.2188V17.75H74.7812C74.8958 19.1458 75.3594 20.25 76.1719 21.0625C76.9948 21.875 78.026 22.2812 79.2656 22.2812C81.0052 22.2812 82.4219 21.5781 83.5156 20.1719L85.5625 22.125C84.8854 23.1354 83.9792 23.9219 82.8438 24.4844C81.7188 25.0365 80.4531 25.3125 79.0469 25.3125ZM78.5938 10.8281C77.5521 10.8281 76.7083 11.1927 76.0625 11.9219C75.4271 12.651 75.0208 13.6667 74.8438 14.9688H82.0781V14.6875C81.9948 13.4167 81.6562 12.4583 81.0625 11.8125C80.4688 11.1562 79.6458 10.8281 78.5938 10.8281ZM101.906 11.1094H96.4219V25H92.625V11.1094H87.2031V8.09375H101.906V11.1094ZM112.406 9.03125C114.531 9.03125 116.234 9.74479 117.516 11.1719C118.797 12.5885 119.438 14.5156 119.438 16.9531V17.1406C119.438 19.5781 118.74 21.5521 117.344 23.0625C115.958 24.5729 114.073 25.3281 111.688 25.3281C109.365 25.3281 107.49 24.5573 106.062 23.0156C104.635 21.474 103.922 19.3698 103.922 16.7031V15.6094C103.922 11.9635 104.568 9.07812 105.859 6.95312C107.151 4.82812 109.078 3.5 111.641 2.96875C113.078 2.67708 114.005 2.36979 114.422 2.04688C114.849 1.71354 115.062 1.26562 115.062 0.703125H118.125C118.125 1.75521 117.953 2.60938 117.609 3.26562C117.266 3.92188 116.74 4.45833 116.031 4.875C115.323 5.28125 114.104 5.66667 112.375 6.03125C110.792 6.36458 109.583 6.95833 108.75 7.8125C107.927 8.66667 107.375 9.84896 107.094 11.3594C108.604 9.80729 110.375 9.03125 112.406 9.03125ZM111.656 12.0781C110.427 12.0781 109.464 12.4948 108.766 13.3281C108.068 14.151 107.719 15.4219 107.719 17.1406C107.719 18.7656 108.062 20.0312 108.75 20.9375C109.438 21.8438 110.417 22.2969 111.688 22.2969C112.948 22.2969 113.922 21.8438 114.609 20.9375C115.307 20.0208 115.656 18.6458 115.656 16.8125C115.656 15.3542 115.307 14.2031 114.609 13.3594C113.922 12.5052 112.938 12.0781 111.656 12.0781ZM121.703 16.3906C121.703 14.7344 122.031 13.2448 122.688 11.9219C123.344 10.5885 124.266 9.56771 125.453 8.85938C126.641 8.14062 128.005 7.78125 129.547 7.78125C131.828 7.78125 133.677 8.51562 135.094 9.98438C136.521 11.4531 137.292 13.401 137.406 15.8281L137.422 16.7188C137.422 18.3854 137.099 19.875 136.453 21.1875C135.818 22.5 134.901 23.5156 133.703 24.2344C132.516 24.9531 131.141 25.3125 129.578 25.3125C127.193 25.3125 125.281 24.5208 123.844 22.9375C122.417 21.3438 121.703 19.224 121.703 16.5781V16.3906ZM125.5 16.7188C125.5 18.4583 125.859 19.8229 126.578 20.8125C127.297 21.7917 128.297 22.2812 129.578 22.2812C130.859 22.2812 131.854 21.7812 132.562 20.7812C133.281 19.7812 133.641 18.3177 133.641 16.3906C133.641 14.6823 133.271 13.3281 132.531 12.3281C131.802 11.3281 130.807 10.8281 129.547 10.8281C128.307 10.8281 127.323 11.3229 126.594 12.3125C125.865 13.2917 125.5 14.7604 125.5 16.7188ZM154.75 8.09375V25H150.953V11.1562H146.172L145.859 17.0469C145.661 19.8802 145.115 21.9167 144.219 23.1562C143.333 24.3854 141.974 25 140.141 25H138.969L138.953 21.8438L139.734 21.7656C140.568 21.651 141.172 21.1458 141.547 20.25C141.932 19.3438 142.177 17.6979 142.281 15.3125L142.594 8.09375H154.75Z" fill="white"/>
</svg>
