<svg width="143" height="26" viewBox="0 0 143 26" fill="none" xmlns="http://www.w3.org/2000/svg">
<path d="M0.3125 25V2.25H8.10938C10.6823 2.25 12.6406 2.76562 13.9844 3.79688C15.3281 4.82812 16 6.36458 16 8.40625C16 9.44792 15.7188 10.3854 15.1562 11.2188C14.5938 12.0521 13.7708 12.6979 12.6875 13.1562C13.9167 13.4896 14.8646 14.1198 15.5312 15.0469C16.2083 15.9635 16.5469 17.0677 16.5469 18.3594C16.5469 20.4948 15.8594 22.1354 14.4844 23.2812C13.1198 24.4271 11.1615 25 8.60938 25H0.3125ZM4.26562 14.7344V21.8438H8.65625C9.89583 21.8438 10.8646 21.5365 11.5625 20.9219C12.2604 20.3073 12.6094 19.4531 12.6094 18.3594C12.6094 15.9948 11.401 14.7865 8.98438 14.7344H4.26562ZM4.26562 11.8281H8.14062C9.36979 11.8281 10.3281 11.5521 11.0156 11C11.7135 10.4375 12.0625 9.64583 12.0625 8.625C12.0625 7.5 11.7396 6.6875 11.0938 6.1875C10.4583 5.6875 9.46354 5.4375 8.10938 5.4375H4.26562V11.8281ZM19.4219 16.3906C19.4219 14.7344 19.75 13.2448 20.4062 11.9219C21.0625 10.5885 21.9844 9.56771 23.1719 8.85938C24.3594 8.14062 25.724 7.78125 27.2656 7.78125C29.5469 7.78125 31.3958 8.51562 32.8125 9.98438C34.2396 11.4531 35.0104 13.401 35.125 15.8281L35.1406 16.7188C35.1406 18.3854 34.8177 19.875 34.1719 21.1875C33.5365 22.5 32.6198 23.5156 31.4219 24.2344C30.2344 24.9531 28.8594 25.3125 27.2969 25.3125C24.9115 25.3125 23 24.5208 21.5625 22.9375C20.1354 21.3438 19.4219 19.224 19.4219 16.5781V16.3906ZM23.2188 16.7188C23.2188 18.4583 23.5781 19.8229 24.2969 20.8125C25.0156 21.7917 26.0156 22.2812 27.2969 22.2812C28.5781 22.2812 29.5729 21.7812 30.2812 20.7812C31 19.7812 31.3594 18.3177 31.3594 16.3906C31.3594 14.6823 30.9896 13.3281 30.25 12.3281C29.5208 11.3281 28.526 10.8281 27.2656 10.8281C26.026 10.8281 25.0417 11.3229 24.3125 12.3125C23.5833 13.2917 23.2188 14.7604 23.2188 16.7188ZM52.4688 8.09375V25H48.6719V11.1562H43.8906L43.5781 17.0469C43.3802 19.8802 42.8333 21.9167 41.9375 23.1562C41.0521 24.3854 39.6927 25 37.8594 25H36.6875L36.6719 21.8438L37.4531 21.7656C38.2865 21.651 38.8906 21.1458 39.2656 20.25C39.651 19.3438 39.8958 17.6979 40 15.3125L40.3125 8.09375H52.4688ZM63.9531 25.3125C61.5469 25.3125 59.5938 24.5573 58.0938 23.0469C56.6042 21.526 55.8594 19.5052 55.8594 16.9844V16.5156C55.8594 14.8281 56.1823 13.3229 56.8281 12C57.4844 10.6667 58.401 9.63021 59.5781 8.89062C60.7552 8.15104 62.0677 7.78125 63.5156 7.78125C65.8177 7.78125 67.5938 8.51562 68.8438 9.98438C70.1042 11.4531 70.7344 13.5312 70.7344 16.2188V17.75H59.6875C59.8021 19.1458 60.2656 20.25 61.0781 21.0625C61.901 21.875 62.9323 22.2812 64.1719 22.2812C65.9115 22.2812 67.3281 21.5781 68.4219 20.1719L70.4688 22.125C69.7917 23.1354 68.8854 23.9219 67.75 24.4844C66.625 25.0365 65.3594 25.3125 63.9531 25.3125ZM63.5 10.8281C62.4583 10.8281 61.6146 11.1927 60.9688 11.9219C60.3333 12.651 59.9271 13.6667 59.75 14.9688H66.9844V14.6875C66.901 13.4167 66.5625 12.4583 65.9688 11.8125C65.375 11.1562 64.5521 10.8281 63.5 10.8281ZM84.25 8.09375H88.0312V25H84.25V13.7188L77.625 25H73.8438V8.09375H77.625V19.375L84.25 8.09375ZM86.0312 1.60938C86.0312 2.92188 85.5729 3.98438 84.6562 4.79688C83.7396 5.60938 82.5156 6.01562 80.9844 6.01562C79.4531 6.01562 78.2292 5.60938 77.3125 4.79688C76.3958 3.98438 75.9375 2.92188 75.9375 1.60938H78.7812C78.7812 2.29688 78.974 2.83333 79.3594 3.21875C79.7552 3.59375 80.2969 3.78125 80.9844 3.78125C81.6719 3.78125 82.2083 3.59375 82.5938 3.21875C82.9792 2.83333 83.1719 2.29688 83.1719 1.60938H86.0312ZM100.031 9.03125C102.156 9.03125 103.859 9.74479 105.141 11.1719C106.422 12.5885 107.062 14.5156 107.062 16.9531V17.1406C107.062 19.5781 106.365 21.5521 104.969 23.0625C103.583 24.5729 101.698 25.3281 99.3125 25.3281C96.9896 25.3281 95.1146 24.5573 93.6875 23.0156C92.2604 21.474 91.5469 19.3698 91.5469 16.7031V15.6094C91.5469 11.9635 92.1927 9.07812 93.4844 6.95312C94.776 4.82812 96.7031 3.5 99.2656 2.96875C100.703 2.67708 101.63 2.36979 102.047 2.04688C102.474 1.71354 102.688 1.26562 102.688 0.703125H105.75C105.75 1.75521 105.578 2.60938 105.234 3.26562C104.891 3.92188 104.365 4.45833 103.656 4.875C102.948 5.28125 101.729 5.66667 100 6.03125C98.4167 6.36458 97.2083 6.95833 96.375 7.8125C95.5521 8.66667 95 9.84896 94.7188 11.3594C96.2292 9.80729 98 9.03125 100.031 9.03125ZM99.2812 12.0781C98.0521 12.0781 97.0885 12.4948 96.3906 13.3281C95.6927 14.151 95.3438 15.4219 95.3438 17.1406C95.3438 18.7656 95.6875 20.0312 96.375 20.9375C97.0625 21.8438 98.0417 22.2969 99.3125 22.2969C100.573 22.2969 101.547 21.8438 102.234 20.9375C102.932 20.0208 103.281 18.6458 103.281 16.8125C103.281 15.3542 102.932 14.2031 102.234 13.3594C101.547 12.5052 100.562 12.0781 99.2812 12.0781ZM109.328 16.3906C109.328 14.7344 109.656 13.2448 110.312 11.9219C110.969 10.5885 111.891 9.56771 113.078 8.85938C114.266 8.14062 115.63 7.78125 117.172 7.78125C119.453 7.78125 121.302 8.51562 122.719 9.98438C124.146 11.4531 124.917 13.401 125.031 15.8281L125.047 16.7188C125.047 18.3854 124.724 19.875 124.078 21.1875C123.443 22.5 122.526 23.5156 121.328 24.2344C120.141 24.9531 118.766 25.3125 117.203 25.3125C114.818 25.3125 112.906 24.5208 111.469 22.9375C110.042 21.3438 109.328 19.224 109.328 16.5781V16.3906ZM113.125 16.7188C113.125 18.4583 113.484 19.8229 114.203 20.8125C114.922 21.7917 115.922 22.2812 117.203 22.2812C118.484 22.2812 119.479 21.7812 120.188 20.7812C120.906 19.7812 121.266 18.3177 121.266 16.3906C121.266 14.6823 120.896 13.3281 120.156 12.3281C119.427 11.3281 118.432 10.8281 117.172 10.8281C115.932 10.8281 114.948 11.3229 114.219 12.3125C113.49 13.2917 113.125 14.7604 113.125 16.7188ZM142.375 8.09375V25H138.578V11.1562H133.797L133.484 17.0469C133.286 19.8802 132.74 21.9167 131.844 23.1562C130.958 24.3854 129.599 25 127.766 25H126.594L126.578 21.8438L127.359 21.7656C128.193 21.651 128.797 21.1458 129.172 20.25C129.557 19.3438 129.802 17.6979 129.906 15.3125L130.219 8.09375H142.375Z" fill="white"/>
</svg>
