<svg width="187" height="57" viewBox="0 0 187 57" fill="none" xmlns="http://www.w3.org/2000/svg">
<path d="M20.375 24H16.4375V13.8906H6.26562V24H2.3125V1.25H6.26562V10.7188H16.4375V1.25H20.375V24ZM34.7969 24C34.6302 23.6771 34.4844 23.151 34.3594 22.4219C33.151 23.6823 31.6719 24.3125 29.9219 24.3125C28.224 24.3125 26.8385 23.8281 25.7656 22.8594C24.6927 21.8906 24.1562 20.6927 24.1562 19.2656C24.1562 17.4635 24.8229 16.0833 26.1562 15.125C27.5 14.1562 29.4167 13.6719 31.9062 13.6719H34.2344V12.5625C34.2344 11.6875 33.9896 10.9896 33.5 10.4688C33.0104 9.9375 32.2656 9.67188 31.2656 9.67188C30.401 9.67188 29.6927 9.89062 29.1406 10.3281C28.5885 10.7552 28.3125 11.3021 28.3125 11.9688H24.5156C24.5156 11.0417 24.8229 10.1771 25.4375 9.375C26.0521 8.5625 26.8854 7.92708 27.9375 7.46875C29 7.01042 30.1823 6.78125 31.4844 6.78125C33.4635 6.78125 35.0417 7.28125 36.2188 8.28125C37.3958 9.27083 38 10.6667 38.0312 12.4688V20.0938C38.0312 21.6146 38.2448 22.8281 38.6719 23.7344V24H34.7969ZM30.625 21.2656C31.375 21.2656 32.0781 21.0833 32.7344 20.7188C33.401 20.3542 33.901 19.8646 34.2344 19.25V16.0625H32.1875C30.7812 16.0625 29.724 16.3073 29.0156 16.7969C28.3073 17.2865 27.9531 17.9792 27.9531 18.875C27.9531 19.6042 28.1927 20.1875 28.6719 20.625C29.1615 21.0521 29.8125 21.2656 30.625 21.2656ZM48.9531 21.2812C49.901 21.2812 50.6875 21.0052 51.3125 20.4531C51.9375 19.901 52.2708 19.2188 52.3125 18.4062H55.8906C55.849 19.4583 55.5208 20.4427 54.9062 21.3594C54.2917 22.2656 53.4583 22.9844 52.4062 23.5156C51.3542 24.0469 50.2188 24.3125 49 24.3125C46.6354 24.3125 44.7604 23.5469 43.375 22.0156C41.9896 20.4844 41.2969 18.3698 41.2969 15.6719V15.2812C41.2969 12.7083 41.9844 10.651 43.3594 9.10938C44.7344 7.55729 46.6094 6.78125 48.9844 6.78125C50.9948 6.78125 52.6302 7.36979 53.8906 8.54688C55.1615 9.71354 55.8281 11.25 55.8906 13.1562H52.3125C52.2708 12.1875 51.9375 11.3906 51.3125 10.7656C50.6979 10.1406 49.9115 9.82812 48.9531 9.82812C47.724 9.82812 46.776 10.276 46.1094 11.1719C45.4427 12.0573 45.1042 13.4062 45.0938 15.2188V15.8281C45.0938 17.6615 45.4219 19.0312 46.0781 19.9375C46.7448 20.8333 47.7031 21.2812 48.9531 21.2812ZM72.0625 10.1094H66.5781V24H62.7812V10.1094H57.3594V7.09375H72.0625V10.1094ZM73.4219 15.3906C73.4219 13.7344 73.75 12.2448 74.4062 10.9219C75.0625 9.58854 75.9844 8.56771 77.1719 7.85938C78.3594 7.14062 79.724 6.78125 81.2656 6.78125C83.5469 6.78125 85.3958 7.51562 86.8125 8.98438C88.2396 10.4531 89.0104 12.401 89.125 14.8281L89.1406 15.7188C89.1406 17.3854 88.8177 18.875 88.1719 20.1875C87.5365 21.5 86.6198 22.5156 85.4219 23.2344C84.2344 23.9531 82.8594 24.3125 81.2969 24.3125C78.9115 24.3125 77 23.5208 75.5625 21.9375C74.1354 20.3438 73.4219 18.224 73.4219 15.5781V15.3906ZM77.2188 15.7188C77.2188 17.4583 77.5781 18.8229 78.2969 19.8125C79.0156 20.7917 80.0156 21.2812 81.2969 21.2812C82.5781 21.2812 83.5729 20.7812 84.2812 19.7812C85 18.7812 85.3594 17.3177 85.3594 15.3906C85.3594 13.6823 84.9896 12.3281 84.25 11.3281C83.5208 10.3281 82.526 9.82812 81.2656 9.82812C80.026 9.82812 79.0417 10.3229 78.3125 11.3125C77.5833 12.2917 77.2188 13.7604 77.2188 15.7188ZM106.469 7.09375V24H102.672V10.1562H97.8906L97.5781 16.0469C97.3802 18.8802 96.8333 20.9167 95.9375 22.1562C95.0521 23.3854 93.6927 24 91.8594 24H90.6875L90.6719 20.8438L91.4531 20.7656C92.2865 20.651 92.8906 20.1458 93.2656 19.25C93.651 18.3438 93.8958 16.6979 94 14.3125L94.3125 7.09375H106.469ZM114.594 12.4688H118.312C119.698 12.4688 120.906 12.7083 121.938 13.1875C122.969 13.6667 123.75 14.3385 124.281 15.2031C124.823 16.0677 125.094 17.0729 125.094 18.2188C125.094 19.9583 124.479 21.3542 123.25 22.4062C122.021 23.4583 120.385 23.9896 118.344 24H110.797V7.09375H114.594V12.4688ZM114.594 15.5156V20.9688H118.297C119.224 20.9688 119.953 20.7396 120.484 20.2812C121.026 19.8125 121.297 19.151 121.297 18.2969C121.297 17.4427 121.031 16.7708 120.5 16.2812C119.979 15.7812 119.271 15.526 118.375 15.5156H114.594ZM142.453 24H138.656V17.1719H132.078V24H128.281V7.09375H132.078V14.1406H138.656V7.09375H142.453V24ZM150.594 12.4688H154.312C155.698 12.4688 156.906 12.7083 157.938 13.1875C158.969 13.6667 159.75 14.3385 160.281 15.2031C160.823 16.0677 161.094 17.0729 161.094 18.2188C161.094 19.9583 160.479 21.3542 159.25 22.4062C158.021 23.4583 156.385 23.9896 154.344 24H146.797V7.09375H150.594V12.4688ZM167.703 24H163.906V7.09375H167.703V24ZM150.594 15.5156V20.9688H154.297C155.224 20.9688 155.953 20.7396 156.484 20.2812C157.026 19.8125 157.297 19.151 157.297 18.2969C157.297 17.4427 157.031 16.7708 156.5 16.2812C155.979 15.7812 155.271 15.526 154.375 15.5156H150.594ZM182.812 7.09375H186.594V24H182.812V12.7188L176.188 24H172.406V7.09375H176.188V18.375L182.812 7.09375ZM184.594 0.609375C184.594 1.92188 184.135 2.98438 183.219 3.79688C182.302 4.60938 181.078 5.01562 179.547 5.01562C178.016 5.01562 176.792 4.60938 175.875 3.79688C174.958 2.98438 174.5 1.92188 174.5 0.609375H177.344C177.344 1.29688 177.536 1.83333 177.922 2.21875C178.318 2.59375 178.859 2.78125 179.547 2.78125C180.234 2.78125 180.771 2.59375 181.156 2.21875C181.542 1.83333 181.734 1.29688 181.734 0.609375H184.594ZM15.25 42.1094H9.76562V56H5.96875V42.1094H0.546875V39.0938H15.25V42.1094ZM24.2344 56.3125C21.8281 56.3125 19.875 55.5573 18.375 54.0469C16.8854 52.526 16.1406 50.5052 16.1406 47.9844V47.5156C16.1406 45.8281 16.4635 44.3229 17.1094 43C17.7656 41.6667 18.6823 40.6302 19.8594 39.8906C21.0365 39.151 22.349 38.7812 23.7969 38.7812C26.099 38.7812 27.875 39.5156 29.125 40.9844C30.3854 42.4531 31.0156 44.5312 31.0156 47.2188V48.75H19.9688C20.0833 50.1458 20.5469 51.25 21.3594 52.0625C22.1823 52.875 23.2135 53.2812 24.4531 53.2812C26.1927 53.2812 27.6094 52.5781 28.7031 51.1719L30.75 53.125C30.0729 54.1354 29.1667 54.9219 28.0312 55.4844C26.9062 56.0365 25.6406 56.3125 24.2344 56.3125ZM23.7812 41.8281C22.7396 41.8281 21.8958 42.1927 21.25 42.9219C20.6146 43.651 20.2083 44.6667 20.0312 45.9688H27.2656V45.6875C27.1823 44.4167 26.8438 43.4583 26.25 42.8125C25.6562 42.1562 24.8333 41.8281 23.7812 41.8281ZM48.2969 56H44.5V49.1719H37.9219V56H34.125V39.0938H37.9219V46.1406H44.5V39.0938H48.2969V56ZM66.6719 56H62.875V49.1719H56.2969V56H52.5V39.0938H56.2969V46.1406H62.875V39.0938H66.6719V56ZM81.2812 39.0938H85.0625V56H81.2812V44.7188L74.6562 56H70.875V39.0938H74.6562V50.375L81.2812 39.0938ZM96.0469 53.2812C96.9948 53.2812 97.7812 53.0052 98.4062 52.4531C99.0312 51.901 99.3646 51.2188 99.4062 50.4062H102.984C102.943 51.4583 102.615 52.4427 102 53.3594C101.385 54.2656 100.552 54.9844 99.5 55.5156C98.4479 56.0469 97.3125 56.3125 96.0938 56.3125C93.7292 56.3125 91.8542 55.5469 90.4688 54.0156C89.0833 52.4844 88.3906 50.3698 88.3906 47.6719V47.2812C88.3906 44.7083 89.0781 42.651 90.4531 41.1094C91.8281 39.5573 93.7031 38.7812 96.0781 38.7812C98.0885 38.7812 99.724 39.3698 100.984 40.5469C102.255 41.7135 102.922 43.25 102.984 45.1562H99.4062C99.3646 44.1875 99.0312 43.3906 98.4062 42.7656C97.7917 42.1406 97.0052 41.8281 96.0469 41.8281C94.8177 41.8281 93.8698 42.276 93.2031 43.1719C92.5365 44.0573 92.1979 45.4062 92.1875 47.2188V47.8281C92.1875 49.6615 92.5156 51.0312 93.1719 51.9375C93.8385 52.8333 94.7969 53.2812 96.0469 53.2812Z" fill="white"/>
</svg>
