<svg width="109" height="32" viewBox="0 0 109 32" fill="none" xmlns="http://www.w3.org/2000/svg">
<path d="M13.7188 4.40625H14.0625C15.8125 4.40625 17.401 4.80208 18.8281 5.59375C20.2656 6.375 21.3802 7.47917 22.1719 8.90625C22.974 10.3333 23.375 11.9375 23.375 13.7188C23.375 15.4896 22.974 17.0833 22.1719 18.5C21.3802 19.9062 20.276 21 18.8594 21.7812C17.4531 22.5625 15.875 22.9583 14.125 22.9688H13.7188V25.9375H9.92188V22.9688H9.54688C7.78646 22.9688 6.1875 22.5781 4.75 21.7969C3.3125 21.0052 2.19792 19.9062 1.40625 18.5C0.625 17.0938 0.234375 15.5104 0.234375 13.75C0.234375 11.9688 0.630208 10.3646 1.42188 8.9375C2.21354 7.51042 3.32292 6.40104 4.75 5.60938C6.17708 4.80729 7.77604 4.40625 9.54688 4.40625H9.92188V1.3125H13.7188V4.40625ZM9.54688 7.57812C7.79688 7.57812 6.42708 8.125 5.4375 9.21875C4.45833 10.3125 3.96875 11.8229 3.96875 13.75C3.96875 15.625 4.45833 17.1042 5.4375 18.1875C6.41667 19.2604 7.80208 19.7969 9.59375 19.7969H9.92188V7.57812H9.54688ZM13.7188 7.57812V19.7969H14.0938C15.8438 19.7969 17.2031 19.25 18.1719 18.1562C19.151 17.0625 19.6406 15.5833 19.6406 13.7188C19.6406 11.8125 19.151 10.3125 18.1719 9.21875C17.2031 8.125 15.8281 7.57812 14.0469 7.57812H13.7188ZM32.3594 19.5625L35.7969 8.09375H39.8438L33.125 27.5625C32.0938 30.4062 30.3438 31.8281 27.875 31.8281C27.3229 31.8281 26.7135 31.7344 26.0469 31.5469V28.6094L26.7656 28.6562C27.724 28.6562 28.4427 28.4792 28.9219 28.125C29.4115 27.7812 29.7969 27.1979 30.0781 26.375L30.625 24.9219L24.6875 8.09375H28.7812L32.3594 19.5625ZM55.3438 11.1094H49.8594V25H46.0625V11.1094H40.6406V8.09375H55.3438V11.1094ZM65.8438 9.03125C67.9688 9.03125 69.6719 9.74479 70.9531 11.1719C72.2344 12.5885 72.875 14.5156 72.875 16.9531V17.1406C72.875 19.5781 72.1771 21.5521 70.7812 23.0625C69.3958 24.5729 67.5104 25.3281 65.125 25.3281C62.8021 25.3281 60.9271 24.5573 59.5 23.0156C58.0729 21.474 57.3594 19.3698 57.3594 16.7031V15.6094C57.3594 11.9635 58.0052 9.07812 59.2969 6.95312C60.5885 4.82812 62.5156 3.5 65.0781 2.96875C66.5156 2.67708 67.4427 2.36979 67.8594 2.04688C68.2865 1.71354 68.5 1.26562 68.5 0.703125H71.5625C71.5625 1.75521 71.3906 2.60938 71.0469 3.26562C70.7031 3.92188 70.1771 4.45833 69.4688 4.875C68.7604 5.28125 67.5417 5.66667 65.8125 6.03125C64.2292 6.36458 63.0208 6.95833 62.1875 7.8125C61.3646 8.66667 60.8125 9.84896 60.5312 11.3594C62.0417 9.80729 63.8125 9.03125 65.8438 9.03125ZM65.0938 12.0781C63.8646 12.0781 62.901 12.4948 62.2031 13.3281C61.5052 14.151 61.1562 15.4219 61.1562 17.1406C61.1562 18.7656 61.5 20.0312 62.1875 20.9375C62.875 21.8438 63.8542 22.2969 65.125 22.2969C66.3854 22.2969 67.3594 21.8438 68.0469 20.9375C68.7448 20.0208 69.0938 18.6458 69.0938 16.8125C69.0938 15.3542 68.7448 14.2031 68.0469 13.3594C67.3594 12.5052 66.375 12.0781 65.0938 12.0781ZM75.1406 16.3906C75.1406 14.7344 75.4688 13.2448 76.125 11.9219C76.7812 10.5885 77.7031 9.56771 78.8906 8.85938C80.0781 8.14062 81.4427 7.78125 82.9844 7.78125C85.2656 7.78125 87.1146 8.51562 88.5312 9.98438C89.9583 11.4531 90.7292 13.401 90.8438 15.8281L90.8594 16.7188C90.8594 18.3854 90.5365 19.875 89.8906 21.1875C89.2552 22.5 88.3385 23.5156 87.1406 24.2344C85.9531 24.9531 84.5781 25.3125 83.0156 25.3125C80.6302 25.3125 78.7188 24.5208 77.2812 22.9375C75.8542 21.3438 75.1406 19.224 75.1406 16.5781V16.3906ZM78.9375 16.7188C78.9375 18.4583 79.2969 19.8229 80.0156 20.8125C80.7344 21.7917 81.7344 22.2812 83.0156 22.2812C84.2969 22.2812 85.2917 21.7812 86 20.7812C86.7188 19.7812 87.0781 18.3177 87.0781 16.3906C87.0781 14.6823 86.7083 13.3281 85.9688 12.3281C85.2396 11.3281 84.2448 10.8281 82.9844 10.8281C81.7448 10.8281 80.7604 11.3229 80.0312 12.3125C79.3021 13.2917 78.9375 14.7604 78.9375 16.7188ZM108.188 8.09375V25H104.391V11.1562H99.6094L99.2969 17.0469C99.099 19.8802 98.5521 21.9167 97.6562 23.1562C96.7708 24.3854 95.4115 25 93.5781 25H92.4062L92.3906 21.8438L93.1719 21.7656C94.0052 21.651 94.6094 21.1458 94.9844 20.25C95.3698 19.3438 95.6146 17.6979 95.7188 15.3125L96.0312 8.09375H108.188Z" fill="white"/>
</svg>
