<svg width="142" height="24" viewBox="0 0 142 24" fill="none" xmlns="http://www.w3.org/2000/svg">
<path d="M4.34375 0.25V19.8438H11.2812V0.25H15.2188V19.8438H22.1094V0.25H26.0469V23H0.375V0.25H4.34375ZM40.4844 23C40.3177 22.6771 40.1719 22.151 40.0469 21.4219C38.8385 22.6823 37.3594 23.3125 35.6094 23.3125C33.9115 23.3125 32.526 22.8281 31.4531 21.8594C30.3802 20.8906 29.8438 19.6927 29.8438 18.2656C29.8438 16.4635 30.5104 15.0833 31.8438 14.125C33.1875 13.1562 35.1042 12.6719 37.5938 12.6719H39.9219V11.5625C39.9219 10.6875 39.6771 9.98958 39.1875 9.46875C38.6979 8.9375 37.9531 8.67188 36.9531 8.67188C36.0885 8.67188 35.3802 8.89062 34.8281 9.32812C34.276 9.75521 34 10.3021 34 10.9688H30.2031C30.2031 10.0417 30.5104 9.17708 31.125 8.375C31.7396 7.5625 32.5729 6.92708 33.625 6.46875C34.6875 6.01042 35.8698 5.78125 37.1719 5.78125C39.151 5.78125 40.7292 6.28125 41.9062 7.28125C43.0833 8.27083 43.6875 9.66667 43.7188 11.4688V19.0938C43.7188 20.6146 43.9323 21.8281 44.3594 22.7344V23H40.4844ZM36.3125 20.2656C37.0625 20.2656 37.7656 20.0833 38.4219 19.7188C39.0885 19.3542 39.5885 18.8646 39.9219 18.25V15.0625H37.875C36.4688 15.0625 35.4115 15.3073 34.7031 15.7969C33.9948 16.2865 33.6406 16.9792 33.6406 17.875C33.6406 18.6042 33.8802 19.1875 34.3594 19.625C34.849 20.0521 35.5 20.2656 36.3125 20.2656ZM53.7656 11.6562L56.9844 6.09375H61.2031L56.0312 14.4219L61.375 23H57.1875L53.8125 17.2188L50.4531 23H46.2344L51.5781 14.4219L46.4219 6.09375H50.6094L53.7656 11.6562ZM73.8281 18.3281L78.8281 6.09375H83.5781V23H79.7812V11.8125L75.125 23H72.5469L67.875 11.75V23H64.0781V6.09375H68.8594L73.8281 18.3281ZM97.9531 23C97.7865 22.6771 97.6406 22.151 97.5156 21.4219C96.3073 22.6823 94.8281 23.3125 93.0781 23.3125C91.3802 23.3125 89.9948 22.8281 88.9219 21.8594C87.849 20.8906 87.3125 19.6927 87.3125 18.2656C87.3125 16.4635 87.9792 15.0833 89.3125 14.125C90.6562 13.1562 92.5729 12.6719 95.0625 12.6719H97.3906V11.5625C97.3906 10.6875 97.1458 9.98958 96.6562 9.46875C96.1667 8.9375 95.4219 8.67188 94.4219 8.67188C93.5573 8.67188 92.849 8.89062 92.2969 9.32812C91.7448 9.75521 91.4688 10.3021 91.4688 10.9688H87.6719C87.6719 10.0417 87.9792 9.17708 88.5938 8.375C89.2083 7.5625 90.0417 6.92708 91.0938 6.46875C92.1562 6.01042 93.3385 5.78125 94.6406 5.78125C96.6198 5.78125 98.1979 6.28125 99.375 7.28125C100.552 8.27083 101.156 9.66667 101.188 11.4688V19.0938C101.188 20.6146 101.401 21.8281 101.828 22.7344V23H97.9531ZM93.7812 20.2656C94.5312 20.2656 95.2344 20.0833 95.8906 19.7188C96.5573 19.3542 97.0573 18.8646 97.3906 18.25V15.0625H95.3438C93.9375 15.0625 92.8802 15.3073 92.1719 15.7969C91.4635 16.2865 91.1094 16.9792 91.1094 17.875C91.1094 18.6042 91.349 19.1875 91.8281 19.625C92.3177 20.0521 92.9688 20.2656 93.7812 20.2656ZM118.219 9.10938H112.734V23H108.938V9.10938H103.516V6.09375H118.219V9.10938ZM124.844 11.4688H128.562C129.948 11.4688 131.156 11.7083 132.188 12.1875C133.219 12.6667 134 13.3385 134.531 14.2031C135.073 15.0677 135.344 16.0729 135.344 17.2188C135.344 18.9583 134.729 20.3542 133.5 21.4062C132.271 22.4583 130.635 22.9896 128.594 23H121.047V6.09375H124.844V11.4688ZM141.953 23H138.156V6.09375H141.953V23ZM124.844 14.5156V19.9688H128.547C129.474 19.9688 130.203 19.7396 130.734 19.2812C131.276 18.8125 131.547 18.151 131.547 17.2969C131.547 16.4427 131.281 15.7708 130.75 15.2812C130.229 14.7812 129.521 14.526 128.625 14.5156H124.844Z" fill="white"/>
</svg>
